<!DOCTYPE svg PUBLIC "-//W3C//DTD SVG 1.1//EN" "http://www.w3.org/Graphics/SVG/1.1/DTD/svg11.dtd">
<svg width="1000" height="1000" 
  xmlns="http://www.w3.org/2000/svg"
  xmlns:xlink="http://www.w3.org/1999/xlink">

<defs>
  <g id="sch_node">
    <line x1="45" y1="0" x2="45" y2="30" stroke-width="1" stroke="#000000"/>
    <rect y="30" width="90" height="90" fill="#eeeeee" stroke="#000000"/>
  </g>
  
  <g id="sch_sub">
    <use xlink:href="#sch_node" x="0" y="0"/>
    <use xlink:href="#sch_node" x="120" y="0"/>
    <use xlink:href="#sch_node" x="300" y="0"/>
  </g>
    
  <g id="sch_1">
    <use xlink:href="#sch_node" x="150" y="0"/>
    <use xlink:href="#sch_sub" x="0" y="240"/>
    <line x1="165" y1="120" x2="45" y2="240" stroke-width="1" stroke="#000000"/>
    <line x1="180" y1="120" x2="165" y2="240" stroke-width="1" stroke="#000000"/>
    <line x1="225" y1="120" x2="345" y2="240" stroke-width="1" stroke="#000000"/>
  </g>

  <g id="sch_2">
    <use xlink:href="#sch_1" x="200" y="0"/>
    <use xlink:href="#sch_sub" x="0" y="480"/>
    <line x1="215" y1="360" x2="45" y2="480" stroke-width="1" stroke="#000000"/>
    <line x1="230" y1="360" x2="165" y2="480" stroke-width="1" stroke="#000000"/>
    <line x1="275" y1="360" x2="345" y2="480" stroke-width="1" stroke="#000000"/>
    <use xlink:href="#sch_sub" x="500" y="480"/>
    <line x1="515" y1="360" x2="545" y2="480" stroke-width="1" stroke="#000000"/>
    <line x1="530" y1="360" x2="665" y2="480" stroke-width="1" stroke="#000000"/>
    <line x1="575" y1="360" x2="845" y2="480" stroke-width="1" stroke="#000000"/>
    <use xlink:href="#sch_sub" x="500" y="720"/>
    <line x1="635" y1="600" x2="545" y2="720" stroke-width="1" stroke="#000000"/>
    <line x1="650" y1="600" x2="665" y2="720" stroke-width="1" stroke="#000000"/>
    <line x1="695" y1="600" x2="845" y2="720" stroke-width="1" stroke="#000000"/>
  </g>

  
  


</defs>
  
  <use xlink:href="#sch_2" x="10" y="0"/>
 

</svg>